<svg xmlns="http://www.w3.org/2000/svg" version="1.1" xmlns:xlink="http://www.w3.org/1999/xlink" width="1200" height="1385"><metadata><rdf:RDF xmlns:rdf="http://www.w3.org/1999/02/22-rdf-syntax-ns#" xmlns:dc="http://purl.org/dc/elements/1.1/"><rdf:Description><dc:creator>RealFaviconGenerator</dc:creator><dc:source>https://realfavicongenerator.net</dc:source></rdf:Description></rdf:RDF></metadata><svg viewBox="0 0 1200 1385" role="img" aria-labelledby="title desc">
  <title id="title">pkgreviewr hex sticker</title>
  <desc id="desc">A hex sticker showing a sectioned audit report, magnifying glass, and R package review motif.</desc>
  <defs>
    <linearGradient id="hexFill" x1="0" y1="0" x2="1" y2="1">
      <stop offset="0%" stop-color="#eff4ef"></stop>
      <stop offset="100%" stop-color="#dbe8d7"></stop>
    </linearGradient>
    <linearGradient id="reportFill" x1="0" y1="0" x2="0" y2="1">
      <stop offset="0%" stop-color="#ffffff"></stop>
      <stop offset="100%" stop-color="#eef2f5"></stop>
    </linearGradient>
    <linearGradient id="glassFill" x1="0" y1="0" x2="1" y2="1">
      <stop offset="0%" stop-color="#2a5b84"></stop>
      <stop offset="100%" stop-color="#173853"></stop>
    </linearGradient>
    <filter id="shadow" x="-20%" y="-20%" width="140%" height="140%">
      <feDropShadow dx="0" dy="20" stdDeviation="24" flood-color="#24435a" flood-opacity="0.18"></feDropShadow>
    </filter>
  </defs>

  <polygon points="600,35 1068,305 1068,845 600,1115 132,845 132,305" fill="url(#hexFill)" stroke="#18344b" stroke-width="42" stroke-linejoin="round"></polygon>

  <polygon points="600,110 1004,343 1004,807 600,1040 196,807 196,343" fill="#f8faf7" opacity="0.62"></polygon>

  <g filter="url(#shadow)">
    <rect x="285" y="270" width="500" height="620" rx="42" fill="url(#reportFill)" stroke="#214764" stroke-width="20"></rect>
    <rect x="285" y="270" width="500" height="118" rx="42" fill="#214764"></rect>
    <text x="535" y="343" font-family="Arial, Helvetica, sans-serif" font-size="72" font-weight="700" text-anchor="middle" fill="#f7fafc">review</text>

    <rect x="336" y="430" width="398" height="88" rx="22" fill="#eef2f4"></rect>
    <rect x="336" y="544" width="398" height="88" rx="22" fill="#eef2f4"></rect>
    <rect x="336" y="658" width="398" height="88" rx="22" fill="#eef2f4"></rect>
    <rect x="336" y="772" width="398" height="68" rx="20" fill="#eef2f4"></rect>

    <rect x="336" y="430" width="26" height="88" rx="13" fill="#2f845f"></rect>
    <rect x="336" y="544" width="26" height="88" rx="13" fill="#ca8e2a"></rect>
    <rect x="336" y="658" width="26" height="88" rx="13" fill="#a0523d"></rect>
    <rect x="336" y="772" width="26" height="68" rx="13" fill="#386e94"></rect>

    <text x="390" y="486" font-family="Arial, Helvetica, sans-serif" font-size="38" font-weight="700" fill="#173853">Strengths</text>
    <text x="390" y="600" font-family="Arial, Helvetica, sans-serif" font-size="38" font-weight="700" fill="#173853">Improvements</text>
    <text x="390" y="714" font-family="Arial, Helvetica, sans-serif" font-size="38" font-weight="700" fill="#173853">Suggestions</text>
    <text x="390" y="818" font-family="Arial, Helvetica, sans-serif" font-size="34" font-weight="700" fill="#173853">Diagnostics</text>
  </g>

  <g transform="translate(705 710) rotate(-16)">
    <circle cx="0" cy="0" r="165" fill="#d7ebf6" stroke="#18344b" stroke-width="30"></circle>
    <circle cx="0" cy="0" r="116" fill="#eff7fb" opacity="0.92"></circle>
    <path d="M 108 108 L 255 255" fill="none" stroke="url(#glassFill)" stroke-width="54" stroke-linecap="round"></path>
    <path d="M -38 -45 C -8 -88 58 -82 87 -24 C 104 10 93 60 58 83 C 15 111 -49 96 -77 55" fill="none" stroke="#2f5d8a" stroke-width="24" stroke-linecap="round"></path>
    <text x="0" y="32" font-family="Georgia, Times New Roman, serif" font-size="150" font-style="italic" font-weight="700" text-anchor="middle" fill="#1f4f74">R</text>
  </g>

  <path d="M 300 1015 C 455 940 760 940 900 1015" fill="none" stroke="#18344b" stroke-width="18" stroke-linecap="round" opacity="0.22"></path>
  <text x="600" y="1228" font-family="Arial, Helvetica, sans-serif" font-size="118" font-weight="800" text-anchor="middle" fill="#18344b">pkgreviewr</text>
  <text x="600" y="1310" font-family="Arial, Helvetica, sans-serif" font-size="42" font-weight="700" letter-spacing="8" text-anchor="middle" fill="#386e94">SECTION-BASED QA REVIEWS</text>
</svg></svg>